<?xml version="1.0" standalone="no"?>
<!DOCTYPE svg PUBLIC "-//W3C//DTD SVG 20010904//EN"
 "http://www.w3.org/TR/2001/REC-SVG-20010904/DTD/svg10.dtd">
<svg version="1.0" xmlns="http://www.w3.org/2000/svg"
 width="180.000000pt" height="30.000000pt" viewBox="0 0 180.000000 30.000000"
 preserveAspectRatio="xMidYMid meet">

<g transform="translate(0.000000,30.000000) scale(0.100000,-0.100000)"
fill="#000000" stroke="none">
<path d="M402 196 c-2 -76 0 -87 12 -77 17 14 72 11 68 -4 -2 -5 -12 -10 -22
-9 -29 1 -24 -13 6 -20 22 -6 25 -11 22 -36 -3 -17 -1 -30 4 -30 4 0 8 25 8
55 l0 55 40 0 c22 0 40 -4 40 -10 0 -5 -11 -10 -25 -10 -16 0 -25 -6 -25 -15
0 -8 9 -15 20 -15 11 0 20 -4 20 -10 0 -5 -9 -10 -20 -10 -11 0 -20 -4 -20
-10 0 -5 11 -10 24 -10 13 0 27 -6 29 -12 3 -7 6 13 6 45 l1 57 39 0 c22 0 42
-5 44 -12 4 -10 6 -10 6 0 2 23 31 12 42 -15 l11 -28 10 28 c8 22 16 27 44 27
30 0 34 -3 34 -27 l0 -28 13 25 c9 18 22 26 46 28 39 4 61 -12 43 -30 -9 -9
-15 -9 -23 -1 -17 17 -39 4 -39 -22 0 -26 22 -39 38 -23 14 14 35 0 28 -18 -3
-8 -1 -14 4 -14 6 0 10 25 10 55 l0 55 40 0 c22 0 40 -4 40 -10 0 -5 -11 -10
-25 -10 -16 0 -25 -6 -25 -15 0 -8 9 -15 20 -15 11 0 20 -4 20 -10 0 -5 -9
-10 -20 -10 -11 0 -20 -4 -20 -10 0 -5 11 -10 25 -10 14 0 25 -4 25 -10 0 -5
9 -10 20 -10 18 0 20 7 20 55 0 47 3 55 18 55 11 0 23 -10 29 -22 l10 -23 12
23 c6 12 21 22 31 22 17 0 20 -7 21 -47 l1 -48 16 48 c21 65 44 63 71 -5 l20
-53 0 53 c1 60 17 68 50 25 l20 -28 1 28 c0 17 5 27 15 27 11 0 15 -13 16 -52
l0 -53 21 52 c28 71 49 70 72 -2 9 -30 21 -55 26 -55 5 0 3 12 -5 26 -13 26
-11 47 8 72 12 15 73 16 83 1 8 -14 -18 -31 -30 -19 -14 14 -36 -1 -36 -25 0
-24 25 -41 35 -25 4 6 1 10 -4 10 -6 0 -11 5 -11 10 0 6 11 10 24 10 20 0 25
-6 29 -33 2 -19 4 -10 5 26 l2 57 40 0 c22 0 40 -4 40 -10 0 -5 -11 -10 -25
-10 -16 0 -25 -6 -25 -15 0 -9 9 -15 25 -15 14 0 25 -4 25 -10 0 -5 -11 -10
-25 -10 -14 0 -25 -4 -25 -10 0 -5 11 -10 24 -10 13 0 27 -6 29 -12 3 -7 6 13
6 45 l1 57 39 0 c44 0 57 -18 46 -63 -4 -14 -2 -28 4 -31 8 -5 11 31 11 118
l0 126 -497 0 c-274 0 -508 -3 -520 -6 -20 -6 -23 -13 -23 -55 0 -37 -4 -49
-15 -49 -11 0 -15 12 -15 49 0 39 -4 50 -18 53 -15 4 -17 0 -14 -22 2 -15 -1
-31 -8 -35 -8 -5 -8 -10 1 -21 6 -8 9 -18 5 -22 -4 -4 -16 3 -26 16 -23 27
-40 28 -40 2 0 -24 -45 -28 -54 -5 -7 20 -36 19 -52 -2 -22 -32 -25 -7 -4 41
11 26 20 50 20 52 0 2 -13 4 -30 4 l-29 0 16 -29 c16 -27 16 -30 0 -55 -13
-20 -26 -26 -52 -26 l-34 0 -4 58 c-2 43 -4 36 -5 -32z"/>
<path d="M571 268 c0 -7 9 -31 19 -53 l19 -40 0 53 c1 46 -1 52 -19 52 -11 0
-20 -6 -19 -12z"/>
<path d="M430 225 c0 -46 13 -58 38 -33 25 25 8 78 -25 78 -9 0 -13 -15 -13
-45z"/>
<path d="M630 245 c0 -22 4 -26 23 -23 14 2 22 10 22 23 0 13 -8 21 -22 23
-19 3 -23 -1 -23 -23z"/>
<path d="M545 230 c-8 -13 -1 -24 14 -19 6 3 7 10 2 18 -6 10 -10 10 -16 1z"/>
<path d="M766 73 c-20 -57 -20 -53 4 -53 17 0 20 7 20 50 0 28 -2 50 -4 50 -2
0 -11 -21 -20 -47z"/>
<path d="M620 95 c0 -9 5 -15 11 -13 6 2 11 8 11 13 0 5 -5 11 -11 13 -6 2
-11 -4 -11 -13z"/>
<path d="M1730 95 c0 -9 5 -15 11 -13 6 2 11 8 11 13 0 5 -5 11 -11 13 -6 2
-11 -4 -11 -13z"/>
<path d="M676 75 c-5 -20 -2 -33 8 -43 24 -24 30 -7 14 34 l-15 37 -7 -28z"/>
<path d="M400 62 c0 -8 3 -12 6 -9 4 3 15 2 25 -4 11 -5 19 -6 19 -2 0 4 -11
13 -25 20 -21 9 -25 9 -25 -5z"/>
<path d="M821 48 c-1 -20 4 -28 15 -28 12 0 14 4 7 13 -6 6 -13 19 -16 27 -3
9 -6 3 -6 -12z"/>
<path d="M620 40 c0 -11 7 -20 15 -20 13 0 14 4 5 20 -6 11 -13 20 -15 20 -3
0 -5 -9 -5 -20z"/>
<path d="M1091 43 c-1 -18 5 -23 24 -23 14 0 25 5 25 10 0 6 -9 10 -19 10 -11
0 -22 6 -24 13 -3 6 -6 2 -6 -10z"/>
<path d="M1320 40 c0 -14 7 -20 22 -20 20 0 21 1 3 20 -10 11 -20 20 -22 20
-1 0 -3 -9 -3 -20z"/>
<path d="M1730 40 c0 -11 7 -20 15 -20 13 0 14 4 5 20 -6 11 -13 20 -15 20 -3
0 -5 -9 -5 -20z"/>
<path d="M1215 30 c-3 -5 3 -10 14 -10 12 0 21 5 21 10 0 6 -6 10 -14 10 -8 0
-18 -4 -21 -10z"/>
<path d="M1430 30 c0 -5 9 -10 21 -10 11 0 17 4 14 10 -8 13 -35 13 -35 0z"/>
</g>
</svg>
